:SAMPLES-PER-SECOND 30
:FRAME-RANGE 1-1086
:FULLY-SPECIFIED
:DEGREES
272
root  -74.8478 38.9104 -54.5924 3.73091 -20.6255 1.07144
RightUpLeg  -16.8414 -12.036 -2.80399
RightLeg  20.6739 -7.10753 1.43912
RightFoot  -7.98225 -0.123595 2.36596
RightToes  -5.8209e-011 0 -3.6325e-017
Spine  2.97693 0.185034 14.7782
Spine1  4.39256 2.23486 -6.78024
HEad  3.07764 -2.85924 -2.51984
LeftShoulder1  1.98177 -2.05482 -29.6013
LeftArm  6.39979 -11.7363 -29.9594
LeftForeArm  -9.95492 -54.9922 -17.013
LeftHand  0.392093 2.60614 -17.3046
RightShoulder  8.22555 14.1674 40.3962
RightArm  -1.33235 6.54351 10.3716
RightForeArm  -21.4134 59.7839 21.623
RightHand  -0.0334051 -5.30583 20.4177
LeftUpLeg  -25.1728 6.25833 1.85209
LeftLeg  54.5841 1.74053 3.10807
LeftFoot  0.157722 0.765229 -7.60359
LeftToes  5.72949e-011 5.22586e-011 2.45399e-011
273
root  -75.2905 39.0181 -54.0619 3.55515 -20.0622 1.97551
RightUpLeg  -15.4164 -12.5503 -3.79221
RightLeg  20.1247 -7.09803 1.91821
RightFoot  -8.95723 -0.109369 2.33401
RightToes  -5.8209e-011 0 -3.6325e-017
Spine  2.19423 0.290171 14.6872
Spine1  4.47933 2.35149 -7.62604
HEad  3.16602 -3.31921 -3.07265
LeftShoulder1  1.97108 -2.01738 -29.6497
LeftArm  6.49115 -12.0543 -29.8698
LeftForeArm  -10.1526 -54.9248 -16.9832
LeftHand  0.395858 2.62329 -17.5775
RightShoulder  8.25822 14.2274 40.421
RightArm  -1.56622 6.38654 10.3745
RightForeArm  -21.3777 59.8396 21.6722
RightHand  -0.0471714 -5.37977 20.3873
LeftUpLeg  -27.3535 6.96782 -0.0347538
LeftLeg  53.3055 1.67654 2.8781
LeftFoot  -1.25276 0.674369 -7.54883
LeftToes  5.72949e-011 5.22586e-011 2.45399e-011
274
root  -75.7227 39.1315 -53.5177 3.3837 -19.5813 2.72491
RightUpLeg  -13.7948 -12.7551 -4.62819
RightLeg  19.2727 -7.38583 2.29519
RightFoot  -9.69611 -0.098376 2.26971
RightToes  -5.8209e-011 0 -3.6325e-017
Spine  1.47551 0.429052 14.6139
Spine1  4.61718 2.49344 -8.43089
HEad  2.97417 -3.51641 -3.86705
LeftShoulder1  1.96358 -2.00834 -29.5708
LeftArm  6.38467 -12.1339 -29.8815
LeftForeArm  -10.1117 -55.0837 -17.0856
LeftHand  0.372207 2.75953 -17.4968
RightShoulder  8.22795 14.1982 40.3321
RightArm  -1.8352 6.36275 10.4767
RightForeArm  -21.3412 59.9457 21.7688
RightHand  -0.07055 -5.50521 20.3918
LeftUpLeg  -28.7481 7.92206 -1.8761
LeftLeg  49.7281 1.38852 2.18418
LeftFoot  -2.39129 0.638454 -7.96685
LeftToes  5.72949e-011 5.22586e-011 2.45399e-011
275
root  -76.1472 39.2825 -52.9782 3.21574 -19.3151 3.36949
RightUpLeg  -11.8381 -12.8195 -5.32541
RightLeg  17.6651 -7.59407 2.74151
RightFoot  -9.98416 -0.0937578 2.17275
RightToes  -5.8209e-011 0 -3.6325e-017
Spine  0.893128 0.529617 14.4278
Spine1  4.6936 2.63764 -9.36883
HEad  2.71582 -3.10215 -4.52851
LeftShoulder1  1.94095 -1.95055 -29.5322
LeftArm  6.16881 -12.0793 -29.6743
LeftForeArm  -10.0172 -55.3935 -17.2869
LeftHand  0.373315 2.75748 -17.5315
RightShoulder  8.23031 14.2421 40.2351
RightArm  -1.70277 6.38031 10.4806
RightForeArm  -21.2485 60.286 22.0854
RightHand  -0.0927252 -5.62499 20.3441
LeftUpLeg  -29.2484 9.32255 -3.74263
LeftLeg  43.8877 1.42896 1.85893
LeftFoot  -2.89431 0.627277 -8.25032
LeftToes  5.72949e-011 5.22586e-011 2.45399e-011
276
root  -76.5457 39.4363 -52.4412 3.05371 -19.273 3.84085
RightUpLeg  -9.72852 -12.6958 -5.77388
RightLeg  15.6643 -7.7115 3.0659
RightFoot  -10.0009 -0.0971325 2.14051
RightToes  -5.8209e-011 0 -3.6325e-017
Spine  0.421601 0.606046 14.23
Spine1  4.78613 2.79913 -10.301
HEad  2.41033 -2.11533 -5.2661
LeftShoulder1  1.92012 -1.89779 -29.4928
LeftArm  5.80352 -11.752 -29.424
LeftForeArm  -9.74091 -55.8546 -17.5829
LeftHand  0.35044 2.90152 -17.5389
RightShoulder  8.31093 14.4443 40.163
RightArm  -1.59008 6.50608 10.5408
RightForeArm  -21.3696 60.4262 22.2293
RightHand  -0.119346 -5.77331 20.1279
LeftUpLeg  -28.8786 11.2156 -5.6165
LeftLeg  36.1827 1.76 1.7349
LeftFoot  -2.66307 0.64217 -8.24402
LeftToes  5.72949e-011 5.22586e-011 2.45399e-011
277
root  -76.9186 39.5786 -51.9085 2.8913 -19.3273 4.04305
RightUpLeg  -7.53141 -12.384 -5.92944
RightLeg  13.5129 -7.93594 3.30805
RightFoot  -9.83927 -0.0984283 2.06667
RightToes  -5.8209e-011 0 -3.6325e-017
Spine  0.0920401 0.651776 14.2049
Spine1  4.93521 3.00309 -11.2453
HEad  2.04321 -1.05004 -5.67605
LeftShoulder1  1.90845 -1.87315 -29.4374
LeftArm  5.46505 -11.4678 -29.2564
LeftForeArm  -9.61468 -56.1562 -17.7853
LeftHand  0.338331 2.98008 -17.5613
RightShoulder  8.3726 14.5512 40.2258
RightArm  -1.49533 6.79162 10.5975
RightForeArm  -21.4547 60.4281 22.2371
RightHand  -0.133161 -5.86145 19.6693
LeftUpLeg  -27.6172 13.4307 -7.31984
LeftLeg  27.0174 1.90416 1.38416
LeftFoot  -2.01533 0.701658 -8.44474
LeftToes  5.72949e-011 5.22586e-011 2.45399e-011
